# xmcd CD database file
#
# Track frame offsets:
#	150
#	16875
#	39787
#	56565
#
# Disc length: 1057 seconds
#
# Revision: 0
# Processed by: cddbd v1.5.1PL0 Copyright (c) Steve Scherf et al.
# Submitted via: CDex 1.51
#
DISCID=23041f04
DTITLE=M-VOICE - SEASON
DYEAR=1998
DGENRE=J-POP
TTITLE0=SEASON
TTITLE1=SWEET RADIO
TTITLE2=SEOSON(instrumental)
TTITLE3=SWEET RADIO(instrumental)
EXTD=YEAR: 1998
EXTT0=
EXTT1=
EXTT2=
EXTT3=
PLAYORDER=
